<?xml version="1.0" standalone="no"?>
 <!DOCTYPE svg PUBLIC "-//W3C//DTD SVG 1.1//EN" 
 "http://www.w3.org/Graphics/SVG/1.1/DTD/svg11.dtd"> 
<svg xmlns="http://www.w3.org/2000/svg" version="1.1" 
    width="29.7002cm" height="21.0007cm" viewBox="0 0 116930 82680 ">
<title>SVG Picture created as Mic_Array-brd.svg date 2019/05/23 08:16:35 </title>
  <desc>Picture generated by PCBNEW </desc>
<g style="fill:#000000; fill-opacity:1;stroke:#000000; stroke-opacity:1;
stroke-linecap:round; stroke-linejoin:round; "
 transform="translate(0 0) scale(1 1)">
</g>
<g style="fill:#000000; fill-opacity:0.0; 
stroke:#000000; stroke-width:-0.000393701; stroke-opacity:1; 
stroke-linecap:round; stroke-linejoin:round;">
</g>
<g style="fill:#000000; fill-opacity:0.0; 
stroke:#000000; stroke-width:39.3701; stroke-opacity:1; 
stroke-linecap:round; stroke-linejoin:round;">
</g>
<g style="fill:#000000; fill-opacity:0.0; 
stroke:#000000; stroke-width:59.0551; stroke-opacity:1; 
stroke-linecap:round; stroke-linejoin:round;">
<rect x="69685.9" y="65357.2" width="42519.7" height="12598.4" rx="0" />
</g>
<g style="fill:#000000; fill-opacity:0.0; 
stroke:#000000; stroke-width:39.3701; stroke-opacity:1; 
stroke-linecap:round; stroke-linejoin:round;">
</g>
<g style="fill:#000000; fill-opacity:0.0; 
stroke:#000000; stroke-width:59.0551; stroke-opacity:1; 
stroke-linecap:round; stroke-linejoin:round;">
<rect x="3937.01" y="3937.01" width="109056" height="74806" rx="0" />
</g>
<g style="fill:#000000; fill-opacity:0.0; 
stroke:#000000; stroke-width:39.3701; stroke-opacity:1; 
stroke-linecap:round; stroke-linejoin:round;">
</g>
<g style="fill:#000000; fill-opacity:0.0; 
stroke:#000000; stroke-width:59.0551; stroke-opacity:1; 
stroke-linecap:round; stroke-linejoin:round;">
<rect x="4724.41" y="4724.41" width="107481" height="73231.2" rx="0" />
</g>
<g style="fill:#000000; fill-opacity:0.0; 
stroke:#000000; stroke-width:39.3701; stroke-opacity:1; 
stroke-linecap:round; stroke-linejoin:round;">
</g>
<g style="fill:#000000; fill-opacity:0.0; 
stroke:#000000; stroke-width:59.0551; stroke-opacity:1; 
stroke-linecap:round; stroke-linejoin:round;">
<path d="M23622 4724
L23622 3937
" />
</g>
<g style="fill:#000000; fill-opacity:0.0; 
stroke:#000000; stroke-width:39.3701; stroke-opacity:1; 
stroke-linecap:round; stroke-linejoin:round;">
</g>
<g style="fill:#000000; fill-opacity:0.0; 
stroke:#000000; stroke-width:59.0551; stroke-opacity:1; 
stroke-linecap:round; stroke-linejoin:round;">
<path d="M43307 4724
L43307 3937
" />
</g>
<g style="fill:#000000; fill-opacity:0.0; 
stroke:#000000; stroke-width:39.3701; stroke-opacity:1; 
stroke-linecap:round; stroke-linejoin:round;">
</g>
<g style="fill:#000000; fill-opacity:0.0; 
stroke:#000000; stroke-width:59.0551; stroke-opacity:1; 
stroke-linecap:round; stroke-linejoin:round;">
<path d="M62992 4724
L62992 3937
" />
</g>
<g style="fill:#000000; fill-opacity:0.0; 
stroke:#000000; stroke-width:39.3701; stroke-opacity:1; 
stroke-linecap:round; stroke-linejoin:round;">
</g>
<g style="fill:#000000; fill-opacity:0.0; 
stroke:#000000; stroke-width:59.0551; stroke-opacity:1; 
stroke-linecap:round; stroke-linejoin:round;">
<path d="M82677 4724
L82677 3937
" />
</g>
<g style="fill:#000000; fill-opacity:0.0; 
stroke:#000000; stroke-width:39.3701; stroke-opacity:1; 
stroke-linecap:round; stroke-linejoin:round;">
</g>
<g style="fill:#000000; fill-opacity:0.0; 
stroke:#000000; stroke-width:59.0551; stroke-opacity:1; 
stroke-linecap:round; stroke-linejoin:round;">
<path d="M102362 4724
L102362 3937
" />
</g>
<g style="fill:#000000; fill-opacity:0.0; 
stroke:#000000; stroke-width:39.3701; stroke-opacity:1; 
stroke-linecap:round; stroke-linejoin:round;">
</g>
<g style="fill:#000000; fill-opacity:0.0; 
stroke:#000000; stroke-width:59.0551; stroke-opacity:1; 
stroke-linecap:round; stroke-linejoin:round;">
<path d="M14169 4562
L13877 4562
" />
<path d="M14023 4562
L14023 4050
L13974 4123
L13925 4172
L13877 4196
" />
</g>
<g style="fill:#000000; fill-opacity:0.0; 
stroke:#000000; stroke-width:39.3701; stroke-opacity:1; 
stroke-linecap:round; stroke-linejoin:round;">
</g>
<g style="fill:#000000; fill-opacity:0.0; 
stroke:#000000; stroke-width:59.0551; stroke-opacity:1; 
stroke-linecap:round; stroke-linejoin:round;">
<path d="M33562 4099
L33586 4074
L33635 4050
L33757 4050
L33805 4074
L33830 4099
L33854 4147
L33854 4196
L33830 4269
L33537 4562
L33854 4562
" />
</g>
<g style="fill:#000000; fill-opacity:0.0; 
stroke:#000000; stroke-width:39.3701; stroke-opacity:1; 
stroke-linecap:round; stroke-linejoin:round;">
</g>
<g style="fill:#000000; fill-opacity:0.0; 
stroke:#000000; stroke-width:59.0551; stroke-opacity:1; 
stroke-linecap:round; stroke-linejoin:round;">
<path d="M53222 4050
L53539 4050
L53368 4245
L53442 4245
L53490 4269
L53515 4294
L53539 4342
L53539 4464
L53515 4513
L53490 4537
L53442 4562
L53295 4562
L53247 4537
L53222 4513
" />
</g>
<g style="fill:#000000; fill-opacity:0.0; 
stroke:#000000; stroke-width:39.3701; stroke-opacity:1; 
stroke-linecap:round; stroke-linejoin:round;">
</g>
<g style="fill:#000000; fill-opacity:0.0; 
stroke:#000000; stroke-width:59.0551; stroke-opacity:1; 
stroke-linecap:round; stroke-linejoin:round;">
<path d="M73175 4221
L73175 4562
" />
<path d="M73053 4026
L72932 4391
L73248 4391
" />
</g>
<g style="fill:#000000; fill-opacity:0.0; 
stroke:#000000; stroke-width:39.3701; stroke-opacity:1; 
stroke-linecap:round; stroke-linejoin:round;">
</g>
<g style="fill:#000000; fill-opacity:0.0; 
stroke:#000000; stroke-width:59.0551; stroke-opacity:1; 
stroke-linecap:round; stroke-linejoin:round;">
<path d="M92885 4050
L92641 4050
L92617 4294
L92641 4269
L92690 4245
L92812 4245
L92860 4269
L92885 4294
L92909 4342
L92909 4464
L92885 4513
L92860 4537
L92812 4562
L92690 4562
L92641 4537
L92617 4513
" />
</g>
<g style="fill:#000000; fill-opacity:0.0; 
stroke:#000000; stroke-width:39.3701; stroke-opacity:1; 
stroke-linecap:round; stroke-linejoin:round;">
</g>
<g style="fill:#000000; fill-opacity:0.0; 
stroke:#000000; stroke-width:59.0551; stroke-opacity:1; 
stroke-linecap:round; stroke-linejoin:round;">
<path d="M112545 4050
L112448 4050
L112399 4074
L112375 4099
L112326 4172
L112302 4269
L112302 4464
L112326 4513
L112350 4537
L112399 4562
L112497 4562
L112545 4537
L112570 4513
L112594 4464
L112594 4342
L112570 4294
L112545 4269
L112497 4245
L112399 4245
L112350 4269
L112326 4294
L112302 4342
" />
</g>
<g style="fill:#000000; fill-opacity:0.0; 
stroke:#000000; stroke-width:39.3701; stroke-opacity:1; 
stroke-linecap:round; stroke-linejoin:round;">
</g>
<g style="fill:#000000; fill-opacity:0.0; 
stroke:#000000; stroke-width:59.0551; stroke-opacity:1; 
stroke-linecap:round; stroke-linejoin:round;">
<path d="M23622 77955
L23622 78742
" />
</g>
<g style="fill:#000000; fill-opacity:0.0; 
stroke:#000000; stroke-width:39.3701; stroke-opacity:1; 
stroke-linecap:round; stroke-linejoin:round;">
</g>
<g style="fill:#000000; fill-opacity:0.0; 
stroke:#000000; stroke-width:59.0551; stroke-opacity:1; 
stroke-linecap:round; stroke-linejoin:round;">
<path d="M43307 77955
L43307 78742
" />
</g>
<g style="fill:#000000; fill-opacity:0.0; 
stroke:#000000; stroke-width:39.3701; stroke-opacity:1; 
stroke-linecap:round; stroke-linejoin:round;">
</g>
<g style="fill:#000000; fill-opacity:0.0; 
stroke:#000000; stroke-width:59.0551; stroke-opacity:1; 
stroke-linecap:round; stroke-linejoin:round;">
<path d="M62992 77955
L62992 78742
" />
</g>
<g style="fill:#000000; fill-opacity:0.0; 
stroke:#000000; stroke-width:39.3701; stroke-opacity:1; 
stroke-linecap:round; stroke-linejoin:round;">
</g>
<g style="fill:#000000; fill-opacity:0.0; 
stroke:#000000; stroke-width:59.0551; stroke-opacity:1; 
stroke-linecap:round; stroke-linejoin:round;">
<path d="M82677 77955
L82677 78742
" />
</g>
<g style="fill:#000000; fill-opacity:0.0; 
stroke:#000000; stroke-width:39.3701; stroke-opacity:1; 
stroke-linecap:round; stroke-linejoin:round;">
</g>
<g style="fill:#000000; fill-opacity:0.0; 
stroke:#000000; stroke-width:59.0551; stroke-opacity:1; 
stroke-linecap:round; stroke-linejoin:round;">
<path d="M102362 77955
L102362 78742
" />
</g>
<g style="fill:#000000; fill-opacity:0.0; 
stroke:#000000; stroke-width:39.3701; stroke-opacity:1; 
stroke-linecap:round; stroke-linejoin:round;">
</g>
<g style="fill:#000000; fill-opacity:0.0; 
stroke:#000000; stroke-width:59.0551; stroke-opacity:1; 
stroke-linecap:round; stroke-linejoin:round;">
<path d="M14169 78580
L13877 78580
" />
<path d="M14023 78580
L14023 78069
L13974 78142
L13925 78190
L13877 78215
" />
</g>
<g style="fill:#000000; fill-opacity:0.0; 
stroke:#000000; stroke-width:39.3701; stroke-opacity:1; 
stroke-linecap:round; stroke-linejoin:round;">
</g>
<g style="fill:#000000; fill-opacity:0.0; 
stroke:#000000; stroke-width:59.0551; stroke-opacity:1; 
stroke-linecap:round; stroke-linejoin:round;">
<path d="M33562 78117
L33586 78093
L33635 78069
L33757 78069
L33805 78093
L33830 78117
L33854 78166
L33854 78215
L33830 78288
L33537 78580
L33854 78580
" />
</g>
<g style="fill:#000000; fill-opacity:0.0; 
stroke:#000000; stroke-width:39.3701; stroke-opacity:1; 
stroke-linecap:round; stroke-linejoin:round;">
</g>
<g style="fill:#000000; fill-opacity:0.0; 
stroke:#000000; stroke-width:59.0551; stroke-opacity:1; 
stroke-linecap:round; stroke-linejoin:round;">
<path d="M53222 78069
L53539 78069
L53368 78263
L53442 78263
L53490 78288
L53515 78312
L53539 78361
L53539 78483
L53515 78532
L53490 78556
L53442 78580
L53295 78580
L53247 78556
L53222 78532
" />
</g>
<g style="fill:#000000; fill-opacity:0.0; 
stroke:#000000; stroke-width:39.3701; stroke-opacity:1; 
stroke-linecap:round; stroke-linejoin:round;">
</g>
<g style="fill:#000000; fill-opacity:0.0; 
stroke:#000000; stroke-width:59.0551; stroke-opacity:1; 
stroke-linecap:round; stroke-linejoin:round;">
<path d="M73175 78239
L73175 78580
" />
<path d="M73053 78044
L72932 78410
L73248 78410
" />
</g>
<g style="fill:#000000; fill-opacity:0.0; 
stroke:#000000; stroke-width:39.3701; stroke-opacity:1; 
stroke-linecap:round; stroke-linejoin:round;">
</g>
<g style="fill:#000000; fill-opacity:0.0; 
stroke:#000000; stroke-width:59.0551; stroke-opacity:1; 
stroke-linecap:round; stroke-linejoin:round;">
<path d="M92885 78069
L92641 78069
L92617 78312
L92641 78288
L92690 78263
L92812 78263
L92860 78288
L92885 78312
L92909 78361
L92909 78483
L92885 78532
L92860 78556
L92812 78580
L92690 78580
L92641 78556
L92617 78532
" />
</g>
<g style="fill:#000000; fill-opacity:0.0; 
stroke:#000000; stroke-width:39.3701; stroke-opacity:1; 
stroke-linecap:round; stroke-linejoin:round;">
</g>
<g style="fill:#000000; fill-opacity:0.0; 
stroke:#000000; stroke-width:59.0551; stroke-opacity:1; 
stroke-linecap:round; stroke-linejoin:round;">
<path d="M112545 78069
L112448 78069
L112399 78093
L112375 78117
L112326 78190
L112302 78288
L112302 78483
L112326 78532
L112350 78556
L112399 78580
L112497 78580
L112545 78556
L112570 78532
L112594 78483
L112594 78361
L112570 78312
L112545 78288
L112497 78263
L112399 78263
L112350 78288
L112326 78312
L112302 78361
" />
</g>
<g style="fill:#000000; fill-opacity:0.0; 
stroke:#000000; stroke-width:39.3701; stroke-opacity:1; 
stroke-linecap:round; stroke-linejoin:round;">
</g>
<g style="fill:#000000; fill-opacity:0.0; 
stroke:#000000; stroke-width:59.0551; stroke-opacity:1; 
stroke-linecap:round; stroke-linejoin:round;">
<path d="M3937 23622
L4724 23622
" />
</g>
<g style="fill:#000000; fill-opacity:0.0; 
stroke:#000000; stroke-width:39.3701; stroke-opacity:1; 
stroke-linecap:round; stroke-linejoin:round;">
</g>
<g style="fill:#000000; fill-opacity:0.0; 
stroke:#000000; stroke-width:59.0551; stroke-opacity:1; 
stroke-linecap:round; stroke-linejoin:round;">
<path d="M3937 43307
L4724 43307
" />
</g>
<g style="fill:#000000; fill-opacity:0.0; 
stroke:#000000; stroke-width:39.3701; stroke-opacity:1; 
stroke-linecap:round; stroke-linejoin:round;">
</g>
<g style="fill:#000000; fill-opacity:0.0; 
stroke:#000000; stroke-width:59.0551; stroke-opacity:1; 
stroke-linecap:round; stroke-linejoin:round;">
<path d="M3937 62992
L4724 62992
" />
</g>
<g style="fill:#000000; fill-opacity:0.0; 
stroke:#000000; stroke-width:39.3701; stroke-opacity:1; 
stroke-linecap:round; stroke-linejoin:round;">
</g>
<g style="fill:#000000; fill-opacity:0.0; 
stroke:#000000; stroke-width:59.0551; stroke-opacity:1; 
stroke-linecap:round; stroke-linejoin:round;">
<path d="M4208 13864
L4452 13864
" />
<path d="M4160 14011
L4330 13499
L4501 14011
" />
</g>
<g style="fill:#000000; fill-opacity:0.0; 
stroke:#000000; stroke-width:39.3701; stroke-opacity:1; 
stroke-linecap:round; stroke-linejoin:round;">
</g>
<g style="fill:#000000; fill-opacity:0.0; 
stroke:#000000; stroke-width:59.0551; stroke-opacity:1; 
stroke-linecap:round; stroke-linejoin:round;">
<path d="M4367 33428
L4440 33452
L4464 33476
L4489 33525
L4489 33598
L4464 33647
L4440 33671
L4391 33696
L4196 33696
L4196 33184
L4367 33184
L4416 33208
L4440 33233
L4464 33281
L4464 33330
L4440 33379
L4416 33403
L4367 33428
L4196 33428
" />
</g>
<g style="fill:#000000; fill-opacity:0.0; 
stroke:#000000; stroke-width:39.3701; stroke-opacity:1; 
stroke-linecap:round; stroke-linejoin:round;">
</g>
<g style="fill:#000000; fill-opacity:0.0; 
stroke:#000000; stroke-width:59.0551; stroke-opacity:1; 
stroke-linecap:round; stroke-linejoin:round;">
<path d="M4489 53332
L4464 53356
L4391 53381
L4342 53381
L4269 53356
L4221 53308
L4196 53259
L4172 53161
L4172 53088
L4196 52991
L4221 52942
L4269 52893
L4342 52869
L4391 52869
L4464 52893
L4489 52918
" />
</g>
<g style="fill:#000000; fill-opacity:0.0; 
stroke:#000000; stroke-width:39.3701; stroke-opacity:1; 
stroke-linecap:round; stroke-linejoin:round;">
</g>
<g style="fill:#000000; fill-opacity:0.0; 
stroke:#000000; stroke-width:59.0551; stroke-opacity:1; 
stroke-linecap:round; stroke-linejoin:round;">
<path d="M4196 73066
L4196 72554
L4318 72554
L4391 72578
L4440 72627
L4464 72676
L4489 72773
L4489 72846
L4464 72944
L4440 72993
L4391 73041
L4318 73066
L4196 73066
" />
</g>
<g style="fill:#000000; fill-opacity:0.0; 
stroke:#000000; stroke-width:39.3701; stroke-opacity:1; 
stroke-linecap:round; stroke-linejoin:round;">
</g>
<g style="fill:#000000; fill-opacity:0.0; 
stroke:#000000; stroke-width:59.0551; stroke-opacity:1; 
stroke-linecap:round; stroke-linejoin:round;">
<path d="M112992 23622
L112205 23622
" />
</g>
<g style="fill:#000000; fill-opacity:0.0; 
stroke:#000000; stroke-width:39.3701; stroke-opacity:1; 
stroke-linecap:round; stroke-linejoin:round;">
</g>
<g style="fill:#000000; fill-opacity:0.0; 
stroke:#000000; stroke-width:59.0551; stroke-opacity:1; 
stroke-linecap:round; stroke-linejoin:round;">
<path d="M112992 43307
L112205 43307
" />
</g>
<g style="fill:#000000; fill-opacity:0.0; 
stroke:#000000; stroke-width:39.3701; stroke-opacity:1; 
stroke-linecap:round; stroke-linejoin:round;">
</g>
<g style="fill:#000000; fill-opacity:0.0; 
stroke:#000000; stroke-width:59.0551; stroke-opacity:1; 
stroke-linecap:round; stroke-linejoin:round;">
<path d="M112992 62992
L112205 62992
" />
</g>
<g style="fill:#000000; fill-opacity:0.0; 
stroke:#000000; stroke-width:39.3701; stroke-opacity:1; 
stroke-linecap:round; stroke-linejoin:round;">
</g>
<g style="fill:#000000; fill-opacity:0.0; 
stroke:#000000; stroke-width:59.0551; stroke-opacity:1; 
stroke-linecap:round; stroke-linejoin:round;">
<path d="M112477 13864
L112721 13864
" />
<path d="M112428 14011
L112599 13499
L112769 14011
" />
</g>
<g style="fill:#000000; fill-opacity:0.0; 
stroke:#000000; stroke-width:39.3701; stroke-opacity:1; 
stroke-linecap:round; stroke-linejoin:round;">
</g>
<g style="fill:#000000; fill-opacity:0.0; 
stroke:#000000; stroke-width:59.0551; stroke-opacity:1; 
stroke-linecap:round; stroke-linejoin:round;">
<path d="M112635 33428
L112708 33452
L112733 33476
L112757 33525
L112757 33598
L112733 33647
L112708 33671
L112660 33696
L112465 33696
L112465 33184
L112635 33184
L112684 33208
L112708 33233
L112733 33281
L112733 33330
L112708 33379
L112684 33403
L112635 33428
L112465 33428
" />
</g>
<g style="fill:#000000; fill-opacity:0.0; 
stroke:#000000; stroke-width:39.3701; stroke-opacity:1; 
stroke-linecap:round; stroke-linejoin:round;">
</g>
<g style="fill:#000000; fill-opacity:0.0; 
stroke:#000000; stroke-width:59.0551; stroke-opacity:1; 
stroke-linecap:round; stroke-linejoin:round;">
<path d="M112757 53332
L112733 53356
L112660 53381
L112611 53381
L112538 53356
L112489 53308
L112465 53259
L112440 53161
L112440 53088
L112465 52991
L112489 52942
L112538 52893
L112611 52869
L112660 52869
L112733 52893
L112757 52918
" />
</g>
<g style="fill:#000000; fill-opacity:0.0; 
stroke:#000000; stroke-width:39.3701; stroke-opacity:1; 
stroke-linecap:round; stroke-linejoin:round;">
</g>
<g style="fill:#000000; fill-opacity:0.0; 
stroke:#000000; stroke-width:59.0551; stroke-opacity:1; 
stroke-linecap:round; stroke-linejoin:round;">
<path d="M112465 73066
L112465 72554
L112587 72554
L112660 72578
L112708 72627
L112733 72676
L112757 72773
L112757 72846
L112733 72944
L112708 72993
L112660 73041
L112587 73066
L112465 73066
" />
</g>
<g style="fill:#000000; fill-opacity:0.0; 
stroke:#000000; stroke-width:39.3701; stroke-opacity:1; 
stroke-linecap:round; stroke-linejoin:round;">
</g>
<g style="fill:#000000; fill-opacity:0.0; 
stroke:#000000; stroke-width:59.0551; stroke-opacity:1; 
stroke-linecap:round; stroke-linejoin:round;">
<path d="M78881 76293
L78881 75703
L79022 75703
L79106 75731
L79162 75787
L79190 75843
L79219 75956
L79219 76040
L79190 76153
L79162 76209
L79106 76265
L79022 76293
L78881 76293
" />
<path d="M79725 76293
L79725 75984
L79697 75928
L79640 75899
L79528 75899
L79472 75928
" />
<path d="M79725 76265
L79669 76293
L79528 76293
L79472 76265
L79444 76209
L79444 76153
L79472 76096
L79528 76068
L79669 76068
L79725 76040
" />
<path d="M79922 75899
L80147 75899
" />
<path d="M80006 75703
L80006 76209
L80034 76265
L80090 76293
L80147 76293
" />
<path d="M80568 76265
L80512 76293
L80400 76293
L80343 76265
L80315 76209
L80315 75984
L80343 75928
L80400 75899
L80512 75899
L80568 75928
L80597 75984
L80597 76040
L80315 76096
" />
<path d="M80850 76237
L80878 76265
L80850 76293
L80822 76265
L80850 76237
L80850 76293
" />
<path d="M80850 75928
L80878 75956
L80850 75984
L80822 75956
L80850 75928
L80850 75984
" />
</g>
<g style="fill:#000000; fill-opacity:0.0; 
stroke:#000000; stroke-width:39.3701; stroke-opacity:1; 
stroke-linecap:round; stroke-linejoin:round;">
</g>
<g style="fill:#000000; fill-opacity:0.0; 
stroke:#000000; stroke-width:59.0551; stroke-opacity:1; 
stroke-linecap:round; stroke-linejoin:round;">
<path d="M69685 76577
L112205 76577
" />
</g>
<g style="fill:#000000; fill-opacity:0.0; 
stroke:#000000; stroke-width:39.3701; stroke-opacity:1; 
stroke-linecap:round; stroke-linejoin:round;">
</g>
<g style="fill:#000000; fill-opacity:0.0; 
stroke:#000000; stroke-width:59.0551; stroke-opacity:1; 
stroke-linecap:round; stroke-linejoin:round;">
<path d="M70220 77395
L70220 76805
" />
<path d="M70557 77395
L70304 77058
" />
<path d="M70557 76805
L70220 77142
" />
<path d="M70810 77395
L70810 77002
" />
<path d="M70810 76805
L70782 76833
L70810 76861
L70838 76833
L70810 76805
L70810 76861
" />
<path d="M71429 77339
L71401 77367
L71316 77395
L71260 77395
L71176 77367
L71120 77311
L71091 77255
L71063 77142
L71063 77058
L71091 76946
L71120 76889
L71176 76833
L71260 76805
L71316 76805
L71401 76833
L71429 76861
" />
<path d="M71935 77395
L71935 77086
L71907 77030
L71851 77002
L71738 77002
L71682 77030
" />
<path d="M71935 77367
L71879 77395
L71738 77395
L71682 77367
L71654 77311
L71654 77255
L71682 77199
L71738 77171
L71879 77171
L71935 77142
" />
<path d="M72469 77395
L72469 76805
" />
<path d="M72469 77367
L72413 77395
L72301 77395
L72244 77367
L72216 77339
L72188 77283
L72188 77114
L72216 77058
L72244 77030
L72301 77002
L72413 77002
L72469 77030
" />
<path d="M73201 77086
L73397 77086
" />
<path d="M73482 77395
L73201 77395
L73201 76805
L73482 76805
" />
<path d="M73735 77339
L73763 77367
L73735 77395
L73707 77367
L73735 77339
L73735 77395
" />
<path d="M74016 77395
L74016 76805
L74157 76805
L74241 76833
L74297 76889
L74325 76946
L74354 77058
L74354 77142
L74325 77255
L74297 77311
L74241 77367
L74157 77395
L74016 77395
" />
<path d="M74607 77339
L74635 77367
L74607 77395
L74579 77367
L74607 77339
L74607 77395
" />
<path d="M74860 77227
L75141 77227
" />
<path d="M74804 77395
L75000 76805
L75197 77395
" />
<path d="M75394 77339
L75422 77367
L75394 77395
L75366 77367
L75394 77339
L75394 77395
" />
<path d="M76575 77395
L76575 76805
" />
<path d="M76631 77171
L76800 77395
" />
<path d="M76800 77002
L76575 77227
" />
<path d="M77053 77395
L77053 77002
" />
<path d="M77053 76805
L77025 76833
L77053 76861
L77081 76833
L77053 76805
L77053 76861
" />
<path d="M77588 77367
L77531 77395
L77419 77395
L77363 77367
L77334 77339
L77306 77283
L77306 77114
L77334 77058
L77363 77030
L77419 77002
L77531 77002
L77588 77030
" />
<path d="M78094 77395
L78094 77086
L78066 77030
L78009 77002
L77897 77002
L77841 77030
" />
<path d="M78094 77367
L78037 77395
L77897 77395
L77841 77367
L77813 77311
L77813 77255
L77841 77199
L77897 77171
L78037 77171
L78094 77142
" />
<path d="M78628 77395
L78628 76805
" />
<path d="M78628 77367
L78572 77395
L78459 77395
L78403 77367
L78375 77339
L78347 77283
L78347 77114
L78375 77058
L78403 77030
L78459 77002
L78572 77002
L78628 77030
" />
<path d="M79612 77002
L79612 77395
" />
<path d="M79472 76777
L79331 77199
L79697 77199
" />
<path d="M79922 77339
L79950 77367
L79922 77395
L79894 77367
L79922 77339
L79922 77395
" />
<path d="M80315 76805
L80372 76805
L80428 76833
L80456 76861
L80484 76917
L80512 77030
L80512 77171
L80484 77283
L80456 77339
L80428 77367
L80372 77395
L80315 77395
L80259 77367
L80231 77339
L80203 77283
L80175 77171
L80175 77030
L80203 76917
L80231 76861
L80259 76833
L80315 76805
" />
<path d="M80765 77339
L80793 77367
L80765 77395
L80737 77367
L80765 77339
L80765 77395
" />
<path d="M81300 76805
L81187 76805
L81131 76833
L81103 76861
L81046 76946
L81018 77058
L81018 77283
L81046 77339
L81075 77367
L81131 77395
L81243 77395
L81300 77367
L81328 77339
L81356 77283
L81356 77142
L81328 77086
L81300 77058
L81243 77030
L81131 77030
L81075 77058
L81046 77086
L81018 77142
" />
</g>
<g style="fill:#000000; fill-opacity:0.0; 
stroke:#000000; stroke-width:39.3701; stroke-opacity:1; 
stroke-linecap:round; stroke-linejoin:round;">
</g>
<g style="fill:#000000; fill-opacity:0.0; 
stroke:#000000; stroke-width:59.0551; stroke-opacity:1; 
stroke-linecap:round; stroke-linejoin:round;">
<path d="M69685 75396
L112205 75396
" />
</g>
<g style="fill:#000000; fill-opacity:0.0; 
stroke:#000000; stroke-width:39.3701; stroke-opacity:1; 
stroke-linecap:round; stroke-linejoin:round;">
</g>
<g style="fill:#000000; fill-opacity:0.0; 
stroke:#000000; stroke-width:118.11; stroke-opacity:1; 
stroke-linecap:round; stroke-linejoin:round;">
<path d="M104022 76293
L103825 76012
" />
<path d="M103684 76293
L103684 75703
L103909 75703
L103965 75731
L103994 75759
L104022 75815
L104022 75899
L103994 75956
L103965 75984
L103909 76012
L103684 76012
" />
<path d="M104500 76265
L104444 76293
L104331 76293
L104275 76265
L104247 76209
L104247 75984
L104275 75928
L104331 75899
L104444 75899
L104500 75928
L104528 75984
L104528 76040
L104247 76096
" />
<path d="M104725 75899
L104865 76293
L105006 75899
" />
<path d="M105231 76237
L105259 76265
L105231 76293
L105203 76265
L105231 76237
L105231 76293
" />
<path d="M105231 75928
L105259 75956
L105231 75984
L105203 75956
L105231 75928
L105231 75984
" />
</g>
<g style="fill:#000000; fill-opacity:0.0; 
stroke:#000000; stroke-width:39.3701; stroke-opacity:1; 
stroke-linecap:round; stroke-linejoin:round;">
</g>
<g style="fill:#000000; fill-opacity:0.0; 
stroke:#000000; stroke-width:59.0551; stroke-opacity:1; 
stroke-linecap:round; stroke-linejoin:round;">
<path d="M70192 76265
L70276 76293
L70417 76293
L70473 76265
L70501 76237
L70529 76181
L70529 76124
L70501 76068
L70473 76040
L70417 76012
L70304 75984
L70248 75956
L70220 75928
L70192 75871
L70192 75815
L70220 75759
L70248 75731
L70304 75703
L70445 75703
L70529 75731
" />
<path d="M70782 76293
L70782 75899
" />
<path d="M70782 75703
L70754 75731
L70782 75759
L70810 75731
L70782 75703
L70782 75759
" />
<path d="M71007 75899
L71316 75899
L71007 76293
L71316 76293
" />
<path d="M71766 76265
L71710 76293
L71598 76293
L71541 76265
L71513 76209
L71513 75984
L71541 75928
L71598 75899
L71710 75899
L71766 75928
L71795 75984
L71795 76040
L71513 76096
" />
<path d="M72048 76237
L72076 76265
L72048 76293
L72019 76265
L72048 76237
L72048 76293
" />
<path d="M72048 75928
L72076 75956
L72048 75984
L72019 75956
L72048 75928
L72048 75984
" />
<path d="M72751 76124
L73032 76124
" />
<path d="M72694 76293
L72891 75703
L73088 76293
" />
<path d="M73538 75899
L73538 76293
" />
<path d="M73397 75674
L73257 76096
L73622 76096
" />
</g>
<g style="fill:#000000; fill-opacity:0.0; 
stroke:#000000; stroke-width:39.3701; stroke-opacity:1; 
stroke-linecap:round; stroke-linejoin:round;">
</g>
<g style="fill:#000000; fill-opacity:0.0; 
stroke:#000000; stroke-width:59.0551; stroke-opacity:1; 
stroke-linecap:round; stroke-linejoin:round;">
<path d="M103684 77395
L103684 76805
" />
<path d="M104219 77395
L104219 76805
" />
<path d="M104219 77367
L104162 77395
L104050 77395
L103994 77367
L103965 77339
L103937 77283
L103937 77114
L103965 77058
L103994 77030
L104050 77002
L104162 77002
L104219 77030
" />
<path d="M104500 77339
L104528 77367
L104500 77395
L104472 77367
L104500 77339
L104500 77395
" />
<path d="M104500 77030
L104528 77058
L104500 77086
L104472 77058
L104500 77030
L104500 77086
" />
<path d="M105540 77395
L105203 77395
" />
<path d="M105372 77395
L105372 76805
L105315 76889
L105259 76946
L105203 76974
" />
<path d="M106215 76777
L105709 77536
" />
<path d="M106721 77395
L106384 77395
" />
<path d="M106553 77395
L106553 76805
L106496 76889
L106440 76946
L106384 76974
" />
</g>
<g style="fill:#000000; fill-opacity:0.0; 
stroke:#000000; stroke-width:39.3701; stroke-opacity:1; 
stroke-linecap:round; stroke-linejoin:round;">
</g>
<g style="fill:#000000; fill-opacity:0.0; 
stroke:#000000; stroke-width:59.0551; stroke-opacity:1; 
stroke-linecap:round; stroke-linejoin:round;">
<path d="M69685 73821
L112205 73821
" />
</g>
<g style="fill:#000000; fill-opacity:0.0; 
stroke:#000000; stroke-width:39.3701; stroke-opacity:1; 
stroke-linecap:round; stroke-linejoin:round;">
</g>
<g style="fill:#000000; fill-opacity:0.0; 
stroke:#000000; stroke-width:157.48; stroke-opacity:1; 
stroke-linecap:round; stroke-linejoin:round;">
<path d="M70257 74099
L70707 74099
" />
<path d="M70384 74886
L70482 74099
" />
<path d="M70871 74886
L70937 74361
" />
<path d="M70970 74099
L70927 74136
L70960 74174
L71002 74136
L70970 74099
L70960 74174
" />
<path d="M71199 74361
L71499 74361
" />
<path d="M71345 74099
L71260 74774
L71288 74849
L71359 74886
L71434 74886
" />
<path d="M71809 74886
L71738 74849
L71710 74774
L71795 74099
" />
<path d="M72413 74849
L72334 74886
L72184 74886
L72113 74849
L72085 74774
L72123 74474
L72169 74399
L72249 74361
L72399 74361
L72469 74399
L72498 74474
L72488 74549
L72104 74624
" />
<path d="M72793 74811
L72826 74849
L72783 74886
L72751 74849
L72793 74811
L72783 74886
" />
<path d="M72844 74399
L72877 74436
L72835 74474
L72802 74436
L72844 74399
L72835 74474
" />
</g>
<g style="fill:#000000; fill-opacity:0.0; 
stroke:#000000; stroke-width:39.3701; stroke-opacity:1; 
stroke-linecap:round; stroke-linejoin:round;">
</g>
<g style="fill:#000000; fill-opacity:0.0; 
stroke:#000000; stroke-width:59.0551; stroke-opacity:1; 
stroke-linecap:round; stroke-linejoin:round;">
<path d="M70417 73070
L70220 73070
" />
<path d="M70220 73380
L70220 72789
L70501 72789
" />
<path d="M70726 73380
L70726 72986
" />
<path d="M70726 72789
L70698 72817
L70726 72845
L70754 72817
L70726 72789
L70726 72845
" />
<path d="M71091 73380
L71035 73352
L71007 73295
L71007 72789
" />
<path d="M71541 73352
L71485 73380
L71373 73380
L71316 73352
L71288 73295
L71288 73070
L71316 73014
L71373 72986
L71485 72986
L71541 73014
L71570 73070
L71570 73127
L71288 73183
" />
<path d="M71823 73323
L71851 73352
L71823 73380
L71795 73352
L71823 73323
L71823 73380
" />
<path d="M71823 73014
L71851 73042
L71823 73070
L71795 73042
L71823 73014
L71823 73070
" />
<path d="M72554 73380
L72554 72789
L72751 73211
L72947 72789
L72947 73380
" />
<path d="M73229 73380
L73229 72986
" />
<path d="M73229 72789
L73201 72817
L73229 72845
L73257 72817
L73229 72789
L73229 72845
" />
<path d="M73763 73352
L73707 73380
L73594 73380
L73538 73352
L73510 73323
L73482 73267
L73482 73099
L73510 73042
L73538 73014
L73594 72986
L73707 72986
L73763 73014
" />
<path d="M73876 73436
L74325 73436
" />
<path d="M74438 73211
L74719 73211
" />
<path d="M74382 73380
L74579 72789
L74775 73380
" />
<path d="M74972 73380
L74972 72986
" />
<path d="M74972 73099
L75000 73042
L75028 73014
L75085 72986
L75141 72986
" />
<path d="M75338 73380
L75338 72986
" />
<path d="M75338 73099
L75366 73042
L75394 73014
L75450 72986
L75507 72986
" />
<path d="M75956 73380
L75956 73070
L75928 73014
L75872 72986
L75760 72986
L75703 73014
" />
<path d="M75956 73352
L75900 73380
L75760 73380
L75703 73352
L75675 73295
L75675 73239
L75703 73183
L75760 73155
L75900 73155
L75956 73127
" />
<path d="M76181 72986
L76322 73380
" />
<path d="M76463 72986
L76322 73380
L76266 73520
L76238 73548
L76181 73577
" />
<path d="M76688 73323
L76716 73352
L76688 73380
L76660 73352
L76688 73323
L76688 73380
" />
<path d="M76969 73380
L76969 72789
" />
<path d="M77025 73155
L77194 73380
" />
<path d="M77194 72986
L76969 73211
" />
<path d="M77447 73380
L77447 72986
" />
<path d="M77447 72789
L77419 72817
L77447 72845
L77475 72817
L77447 72789
L77447 72845
" />
<path d="M77981 73352
L77925 73380
L77813 73380
L77756 73352
L77728 73323
L77700 73267
L77700 73099
L77728 73042
L77756 73014
L77813 72986
L77925 72986
L77981 73014
" />
<path d="M78487 73380
L78487 73070
L78459 73014
L78403 72986
L78291 72986
L78234 73014
" />
<path d="M78487 73352
L78431 73380
L78291 73380
L78234 73352
L78206 73295
L78206 73239
L78234 73183
L78291 73155
L78431 73155
L78487 73127
" />
<path d="M79022 73380
L79022 72789
" />
<path d="M79022 73352
L78965 73380
L78853 73380
L78797 73352
L78769 73323
L78741 73267
L78741 73099
L78769 73042
L78797 73014
L78853 72986
L78965 72986
L79022 73014
" />
<path d="M79162 73436
L79612 73436
" />
<path d="M79753 72986
L79753 73577
" />
<path d="M79753 73014
L79809 72986
L79922 72986
L79978 73014
L80006 73042
L80034 73099
L80034 73267
L80006 73323
L79978 73352
L79922 73380
L79809 73380
L79753 73352
" />
<path d="M80540 73352
L80484 73380
L80372 73380
L80315 73352
L80287 73323
L80259 73267
L80259 73099
L80287 73042
L80315 73014
L80372 72986
L80484 72986
L80540 73014
" />
<path d="M80793 73380
L80793 72789
" />
<path d="M80793 73014
L80850 72986
L80962 72986
L81018 73014
L81046 73042
L81075 73099
L81075 73267
L81046 73323
L81018 73352
L80962 73380
L80850 73380
L80793 73352
" />
</g>
<g style="fill:#000000; fill-opacity:0.0; 
stroke:#000000; stroke-width:39.3701; stroke-opacity:1; 
stroke-linecap:round; stroke-linejoin:round;">
</g>
<g style="fill:#000000; fill-opacity:0.0; 
stroke:#000000; stroke-width:59.0551; stroke-opacity:1; 
stroke-linecap:round; stroke-linejoin:round;">
<path d="M69685 71459
L112205 71459
" />
</g>
<g style="fill:#000000; fill-opacity:0.0; 
stroke:#000000; stroke-width:39.3701; stroke-opacity:1; 
stroke-linecap:round; stroke-linejoin:round;">
</g>
<g style="fill:#000000; fill-opacity:0.0; 
stroke:#000000; stroke-width:59.0551; stroke-opacity:1; 
stroke-linecap:round; stroke-linejoin:round;">
<path d="M70192 72289
L70276 72317
L70417 72317
L70473 72289
L70501 72260
L70529 72204
L70529 72148
L70501 72092
L70473 72064
L70417 72036
L70304 72007
L70248 71979
L70220 71951
L70192 71895
L70192 71839
L70220 71782
L70248 71754
L70304 71726
L70445 71726
L70529 71754
" />
<path d="M70782 72317
L70782 71726
" />
<path d="M71035 72317
L71035 72007
L71007 71951
L70951 71923
L70867 71923
L70810 71951
L70782 71979
" />
<path d="M71541 72289
L71485 72317
L71373 72317
L71316 72289
L71288 72232
L71288 72007
L71316 71951
L71373 71923
L71485 71923
L71541 71951
L71570 72007
L71570 72064
L71288 72120
" />
<path d="M72048 72289
L71991 72317
L71879 72317
L71823 72289
L71795 72232
L71795 72007
L71823 71951
L71879 71923
L71991 71923
L72048 71951
L72076 72007
L72076 72064
L71795 72120
" />
<path d="M72244 71923
L72469 71923
" />
<path d="M72329 71726
L72329 72232
L72357 72289
L72413 72317
L72469 72317
" />
<path d="M72666 72260
L72694 72289
L72666 72317
L72638 72289
L72666 72260
L72666 72317
" />
<path d="M72666 71951
L72694 71979
L72666 72007
L72638 71979
L72666 71951
L72666 72007
" />
</g>
<g style="fill:#000000; fill-opacity:0.0; 
stroke:#000000; stroke-width:39.3701; stroke-opacity:1; 
stroke-linecap:round; stroke-linejoin:round;">
</g>
<g style="fill:#000000; fill-opacity:0.0; 
stroke:#000000; stroke-width:59.0551; stroke-opacity:1; 
stroke-linecap:round; stroke-linejoin:round;">
<path d="M77559 75396
L77559 76577
" />
</g>
<g style="fill:#000000; fill-opacity:0.0; 
stroke:#000000; stroke-width:39.3701; stroke-opacity:1; 
stroke-linecap:round; stroke-linejoin:round;">
</g>
<g style="fill:#000000; fill-opacity:0.0; 
stroke:#000000; stroke-width:59.0551; stroke-opacity:1; 
stroke-linecap:round; stroke-linejoin:round;">
<path d="M102756 75396
L102756 77955
" />
</g>
<g style="fill:#000000; fill-opacity:1.0; 
stroke:#000000; stroke-width:0; stroke-opacity:1; 
stroke-linecap:round; stroke-linejoin:round;">
<circle cx="34862" cy="16668" r="393.701" /> 
</g>
<g style="fill:#000000; fill-opacity:1.0; 
stroke:#000000; stroke-width:39.3701; stroke-opacity:1; 
stroke-linecap:round; stroke-linejoin:round;">
</g>
<g style="fill:#000000; fill-opacity:1.0; 
stroke:#000000; stroke-width:0; stroke-opacity:1; 
stroke-linecap:round; stroke-linejoin:round;">
<circle cx="34862" cy="17668" r="393.701" /> 
</g>
<g style="fill:#000000; fill-opacity:1.0; 
stroke:#000000; stroke-width:39.3701; stroke-opacity:1; 
stroke-linecap:round; stroke-linejoin:round;">
</g>
<g style="fill:#000000; fill-opacity:1.0; 
stroke:#000000; stroke-width:0; stroke-opacity:1; 
stroke-linecap:round; stroke-linejoin:round;">
<circle cx="74520" cy="16665" r="393.701" /> 
</g>
<g style="fill:#000000; fill-opacity:1.0; 
stroke:#000000; stroke-width:39.3701; stroke-opacity:1; 
stroke-linecap:round; stroke-linejoin:round;">
</g>
<g style="fill:#000000; fill-opacity:1.0; 
stroke:#000000; stroke-width:0; stroke-opacity:1; 
stroke-linecap:round; stroke-linejoin:round;">
<circle cx="74520" cy="17665" r="393.701" /> 
</g>
<g style="fill:#000000; fill-opacity:1.0; 
stroke:#000000; stroke-width:39.3701; stroke-opacity:1; 
stroke-linecap:round; stroke-linejoin:round;">
</g>
<g style="fill:#000000; fill-opacity:1.0; 
stroke:#000000; stroke-width:0; stroke-opacity:1; 
stroke-linecap:round; stroke-linejoin:round;">
<circle cx="74530" cy="56320" r="393.701" /> 
</g>
<g style="fill:#000000; fill-opacity:1.0; 
stroke:#000000; stroke-width:39.3701; stroke-opacity:1; 
stroke-linecap:round; stroke-linejoin:round;">
</g>
<g style="fill:#000000; fill-opacity:1.0; 
stroke:#000000; stroke-width:0; stroke-opacity:1; 
stroke-linecap:round; stroke-linejoin:round;">
<circle cx="74530" cy="57320" r="393.701" /> 
</g>
<g style="fill:#000000; fill-opacity:1.0; 
stroke:#000000; stroke-width:39.3701; stroke-opacity:1; 
stroke-linecap:round; stroke-linejoin:round;">
</g>
<g style="fill:#000000; fill-opacity:1.0; 
stroke:#000000; stroke-width:0; stroke-opacity:1; 
stroke-linecap:round; stroke-linejoin:round;">
<circle cx="34868" cy="56322" r="393.701" /> 
</g>
<g style="fill:#000000; fill-opacity:1.0; 
stroke:#000000; stroke-width:39.3701; stroke-opacity:1; 
stroke-linecap:round; stroke-linejoin:round;">
</g>
<g style="fill:#000000; fill-opacity:1.0; 
stroke:#000000; stroke-width:0; stroke-opacity:1; 
stroke-linecap:round; stroke-linejoin:round;">
<circle cx="34868" cy="57322" r="393.701" /> 
</g>
<g style="fill:#000000; fill-opacity:1.0; 
stroke:#000000; stroke-width:39.3701; stroke-opacity:1; 
stroke-linecap:round; stroke-linejoin:round;">
</g>
<g style="fill:#000000; fill-opacity:1.0; 
stroke:#000000; stroke-width:0; stroke-opacity:1; 
stroke-linecap:round; stroke-linejoin:round;">
<circle cx="58668" cy="36233" r="393.701" /> 
</g>
<g style="fill:#000000; fill-opacity:1.0; 
stroke:#000000; stroke-width:39.3701; stroke-opacity:1; 
stroke-linecap:round; stroke-linejoin:round;">
</g>
<g style="fill:#000000; fill-opacity:1.0; 
stroke:#000000; stroke-width:0; stroke-opacity:1; 
stroke-linecap:round; stroke-linejoin:round;">
<circle cx="58668" cy="37233" r="393.701" /> 
</g>
<g style="fill:#000000; fill-opacity:1.0; 
stroke:#000000; stroke-width:39.3701; stroke-opacity:1; 
stroke-linecap:round; stroke-linejoin:round;">
</g>
<g style="fill:#000000; fill-opacity:1.0; 
stroke:#000000; stroke-width:0; stroke-opacity:1; 
stroke-linecap:round; stroke-linejoin:round;">
<circle cx="65256" cy="36233" r="393.701" /> 
</g>
<g style="fill:#000000; fill-opacity:1.0; 
stroke:#000000; stroke-width:39.3701; stroke-opacity:1; 
stroke-linecap:round; stroke-linejoin:round;">
</g>
<g style="fill:#000000; fill-opacity:1.0; 
stroke:#000000; stroke-width:0; stroke-opacity:1; 
stroke-linecap:round; stroke-linejoin:round;">
<circle cx="65256" cy="37233" r="393.701" /> 
</g>
<g style="fill:#000000; fill-opacity:1.0; 
stroke:#000000; stroke-width:39.3701; stroke-opacity:1; 
stroke-linecap:round; stroke-linejoin:round;">
</g>
<g style="fill:#000000; fill-opacity:1.0; 
stroke:#000000; stroke-width:0; stroke-opacity:1; 
stroke-linecap:round; stroke-linejoin:round;">
<circle cx="49798" cy="36232" r="393.701" /> 
</g>
<g style="fill:#000000; fill-opacity:1.0; 
stroke:#000000; stroke-width:39.3701; stroke-opacity:1; 
stroke-linecap:round; stroke-linejoin:round;">
</g>
<g style="fill:#000000; fill-opacity:1.0; 
stroke:#000000; stroke-width:0; stroke-opacity:1; 
stroke-linecap:round; stroke-linejoin:round;">
<circle cx="49798" cy="37232" r="393.701" /> 
</g>
<g style="fill:#000000; fill-opacity:1.0; 
stroke:#000000; stroke-width:39.3701; stroke-opacity:1; 
stroke-linecap:round; stroke-linejoin:round;">
</g>
<g style="fill:#000000; fill-opacity:1.0; 
stroke:#000000; stroke-width:0; stroke-opacity:1; 
stroke-linecap:round; stroke-linejoin:round;">
<circle cx="43215" cy="36225" r="393.701" /> 
</g>
<g style="fill:#000000; fill-opacity:1.0; 
stroke:#000000; stroke-width:39.3701; stroke-opacity:1; 
stroke-linecap:round; stroke-linejoin:round;">
</g>
<g style="fill:#000000; fill-opacity:1.0; 
stroke:#000000; stroke-width:0; stroke-opacity:1; 
stroke-linecap:round; stroke-linejoin:round;">
<circle cx="43215" cy="37225" r="393.701" /> 
</g>
<g style="fill:#000000; fill-opacity:1.0; 
stroke:#000000; stroke-width:39.3701; stroke-opacity:1; 
stroke-linecap:round; stroke-linejoin:round;">
</g>
<g style="fill:#FFFFFF; fill-opacity:1.0; 
stroke:#FFFFFF; stroke-width:39.3701; stroke-opacity:1; 
stroke-linecap:round; stroke-linejoin:round;">
</g>
<g style="fill:#FFFFFF; fill-opacity:1.0; 
stroke:#FFFFFF; stroke-width:0; stroke-opacity:1; 
stroke-linecap:round; stroke-linejoin:round;">
<circle cx="34862" cy="16668" r="157.48" /> 
</g>
<g style="fill:#FFFFFF; fill-opacity:1.0; 
stroke:#FFFFFF; stroke-width:39.3701; stroke-opacity:1; 
stroke-linecap:round; stroke-linejoin:round;">
</g>
<g style="fill:#FFFFFF; fill-opacity:1.0; 
stroke:#FFFFFF; stroke-width:0; stroke-opacity:1; 
stroke-linecap:round; stroke-linejoin:round;">
<circle cx="34862" cy="17668" r="157.48" /> 
</g>
<g style="fill:#FFFFFF; fill-opacity:1.0; 
stroke:#FFFFFF; stroke-width:39.3701; stroke-opacity:1; 
stroke-linecap:round; stroke-linejoin:round;">
</g>
<g style="fill:#FFFFFF; fill-opacity:1.0; 
stroke:#FFFFFF; stroke-width:0; stroke-opacity:1; 
stroke-linecap:round; stroke-linejoin:round;">
<circle cx="74520" cy="16665" r="157.48" /> 
</g>
<g style="fill:#FFFFFF; fill-opacity:1.0; 
stroke:#FFFFFF; stroke-width:39.3701; stroke-opacity:1; 
stroke-linecap:round; stroke-linejoin:round;">
</g>
<g style="fill:#FFFFFF; fill-opacity:1.0; 
stroke:#FFFFFF; stroke-width:0; stroke-opacity:1; 
stroke-linecap:round; stroke-linejoin:round;">
<circle cx="74520" cy="17665" r="157.48" /> 
</g>
<g style="fill:#FFFFFF; fill-opacity:1.0; 
stroke:#FFFFFF; stroke-width:39.3701; stroke-opacity:1; 
stroke-linecap:round; stroke-linejoin:round;">
</g>
<g style="fill:#FFFFFF; fill-opacity:1.0; 
stroke:#FFFFFF; stroke-width:0; stroke-opacity:1; 
stroke-linecap:round; stroke-linejoin:round;">
<circle cx="74530" cy="56320" r="157.48" /> 
</g>
<g style="fill:#FFFFFF; fill-opacity:1.0; 
stroke:#FFFFFF; stroke-width:39.3701; stroke-opacity:1; 
stroke-linecap:round; stroke-linejoin:round;">
</g>
<g style="fill:#FFFFFF; fill-opacity:1.0; 
stroke:#FFFFFF; stroke-width:0; stroke-opacity:1; 
stroke-linecap:round; stroke-linejoin:round;">
<circle cx="74530" cy="57320" r="157.48" /> 
</g>
<g style="fill:#FFFFFF; fill-opacity:1.0; 
stroke:#FFFFFF; stroke-width:39.3701; stroke-opacity:1; 
stroke-linecap:round; stroke-linejoin:round;">
</g>
<g style="fill:#FFFFFF; fill-opacity:1.0; 
stroke:#FFFFFF; stroke-width:0; stroke-opacity:1; 
stroke-linecap:round; stroke-linejoin:round;">
<circle cx="34868" cy="56322" r="157.48" /> 
</g>
<g style="fill:#FFFFFF; fill-opacity:1.0; 
stroke:#FFFFFF; stroke-width:39.3701; stroke-opacity:1; 
stroke-linecap:round; stroke-linejoin:round;">
</g>
<g style="fill:#FFFFFF; fill-opacity:1.0; 
stroke:#FFFFFF; stroke-width:0; stroke-opacity:1; 
stroke-linecap:round; stroke-linejoin:round;">
<circle cx="34868" cy="57322" r="157.48" /> 
</g>
<g style="fill:#FFFFFF; fill-opacity:1.0; 
stroke:#FFFFFF; stroke-width:39.3701; stroke-opacity:1; 
stroke-linecap:round; stroke-linejoin:round;">
</g>
<g style="fill:#FFFFFF; fill-opacity:1.0; 
stroke:#FFFFFF; stroke-width:0; stroke-opacity:1; 
stroke-linecap:round; stroke-linejoin:round;">
<circle cx="58668" cy="36233" r="157.48" /> 
</g>
<g style="fill:#FFFFFF; fill-opacity:1.0; 
stroke:#FFFFFF; stroke-width:39.3701; stroke-opacity:1; 
stroke-linecap:round; stroke-linejoin:round;">
</g>
<g style="fill:#FFFFFF; fill-opacity:1.0; 
stroke:#FFFFFF; stroke-width:0; stroke-opacity:1; 
stroke-linecap:round; stroke-linejoin:round;">
<circle cx="58668" cy="37233" r="157.48" /> 
</g>
<g style="fill:#FFFFFF; fill-opacity:1.0; 
stroke:#FFFFFF; stroke-width:39.3701; stroke-opacity:1; 
stroke-linecap:round; stroke-linejoin:round;">
</g>
<g style="fill:#FFFFFF; fill-opacity:1.0; 
stroke:#FFFFFF; stroke-width:0; stroke-opacity:1; 
stroke-linecap:round; stroke-linejoin:round;">
<circle cx="65256" cy="36233" r="157.48" /> 
</g>
<g style="fill:#FFFFFF; fill-opacity:1.0; 
stroke:#FFFFFF; stroke-width:39.3701; stroke-opacity:1; 
stroke-linecap:round; stroke-linejoin:round;">
</g>
<g style="fill:#FFFFFF; fill-opacity:1.0; 
stroke:#FFFFFF; stroke-width:0; stroke-opacity:1; 
stroke-linecap:round; stroke-linejoin:round;">
<circle cx="65256" cy="37233" r="157.48" /> 
</g>
<g style="fill:#FFFFFF; fill-opacity:1.0; 
stroke:#FFFFFF; stroke-width:39.3701; stroke-opacity:1; 
stroke-linecap:round; stroke-linejoin:round;">
</g>
<g style="fill:#FFFFFF; fill-opacity:1.0; 
stroke:#FFFFFF; stroke-width:0; stroke-opacity:1; 
stroke-linecap:round; stroke-linejoin:round;">
<circle cx="49798" cy="36232" r="157.48" /> 
</g>
<g style="fill:#FFFFFF; fill-opacity:1.0; 
stroke:#FFFFFF; stroke-width:39.3701; stroke-opacity:1; 
stroke-linecap:round; stroke-linejoin:round;">
</g>
<g style="fill:#FFFFFF; fill-opacity:1.0; 
stroke:#FFFFFF; stroke-width:0; stroke-opacity:1; 
stroke-linecap:round; stroke-linejoin:round;">
<circle cx="49798" cy="37232" r="157.48" /> 
</g>
<g style="fill:#FFFFFF; fill-opacity:1.0; 
stroke:#FFFFFF; stroke-width:39.3701; stroke-opacity:1; 
stroke-linecap:round; stroke-linejoin:round;">
</g>
<g style="fill:#FFFFFF; fill-opacity:1.0; 
stroke:#FFFFFF; stroke-width:0; stroke-opacity:1; 
stroke-linecap:round; stroke-linejoin:round;">
<circle cx="43215" cy="36225" r="157.48" /> 
</g>
<g style="fill:#FFFFFF; fill-opacity:1.0; 
stroke:#FFFFFF; stroke-width:39.3701; stroke-opacity:1; 
stroke-linecap:round; stroke-linejoin:round;">
</g>
<g style="fill:#FFFFFF; fill-opacity:1.0; 
stroke:#FFFFFF; stroke-width:0; stroke-opacity:1; 
stroke-linecap:round; stroke-linejoin:round;">
<circle cx="43215" cy="37225" r="157.48" /> 
</g>
<g style="fill:#FFFFFF; fill-opacity:1.0; 
stroke:#FFFFFF; stroke-width:39.3701; stroke-opacity:1; 
stroke-linecap:round; stroke-linejoin:round;">
</g>
<g style="fill:#000000; fill-opacity:1.0; 
stroke:#000000; stroke-width:39.3701; stroke-opacity:1; 
stroke-linecap:round; stroke-linejoin:round;">
</g>
<g style="fill:#000000; fill-opacity:1.0; 
stroke:#000000; stroke-width:0; stroke-opacity:1; 
stroke-linecap:round; stroke-linejoin:round;">
<circle cx="34862" cy="16668" r="472.441" /> 
</g>
<g style="fill:#000000; fill-opacity:1.0; 
stroke:#000000; stroke-width:39.3701; stroke-opacity:1; 
stroke-linecap:round; stroke-linejoin:round;">
</g>
<g style="fill:#000000; fill-opacity:1.0; 
stroke:#000000; stroke-width:0; stroke-opacity:1; 
stroke-linecap:round; stroke-linejoin:round;">
<circle cx="34862" cy="17668" r="472.441" /> 
</g>
<g style="fill:#000000; fill-opacity:1.0; 
stroke:#000000; stroke-width:39.3701; stroke-opacity:1; 
stroke-linecap:round; stroke-linejoin:round;">
</g>
<g style="fill:#000000; fill-opacity:1.0; 
stroke:#000000; stroke-width:0; stroke-opacity:1; 
stroke-linecap:round; stroke-linejoin:round;">
<circle cx="74520" cy="16665" r="472.441" /> 
</g>
<g style="fill:#000000; fill-opacity:1.0; 
stroke:#000000; stroke-width:39.3701; stroke-opacity:1; 
stroke-linecap:round; stroke-linejoin:round;">
</g>
<g style="fill:#000000; fill-opacity:1.0; 
stroke:#000000; stroke-width:0; stroke-opacity:1; 
stroke-linecap:round; stroke-linejoin:round;">
<circle cx="74520" cy="17665" r="472.441" /> 
</g>
<g style="fill:#000000; fill-opacity:1.0; 
stroke:#000000; stroke-width:39.3701; stroke-opacity:1; 
stroke-linecap:round; stroke-linejoin:round;">
</g>
<g style="fill:#000000; fill-opacity:1.0; 
stroke:#000000; stroke-width:0; stroke-opacity:1; 
stroke-linecap:round; stroke-linejoin:round;">
<circle cx="74530" cy="56320" r="472.441" /> 
</g>
<g style="fill:#000000; fill-opacity:1.0; 
stroke:#000000; stroke-width:39.3701; stroke-opacity:1; 
stroke-linecap:round; stroke-linejoin:round;">
</g>
<g style="fill:#000000; fill-opacity:1.0; 
stroke:#000000; stroke-width:0; stroke-opacity:1; 
stroke-linecap:round; stroke-linejoin:round;">
<circle cx="74530" cy="57320" r="472.441" /> 
</g>
<g style="fill:#000000; fill-opacity:1.0; 
stroke:#000000; stroke-width:39.3701; stroke-opacity:1; 
stroke-linecap:round; stroke-linejoin:round;">
</g>
<g style="fill:#000000; fill-opacity:1.0; 
stroke:#000000; stroke-width:0; stroke-opacity:1; 
stroke-linecap:round; stroke-linejoin:round;">
<circle cx="34868" cy="56322" r="472.441" /> 
</g>
<g style="fill:#000000; fill-opacity:1.0; 
stroke:#000000; stroke-width:39.3701; stroke-opacity:1; 
stroke-linecap:round; stroke-linejoin:round;">
</g>
<g style="fill:#000000; fill-opacity:1.0; 
stroke:#000000; stroke-width:0; stroke-opacity:1; 
stroke-linecap:round; stroke-linejoin:round;">
<circle cx="34868" cy="57322" r="472.441" /> 
</g>
<g style="fill:#000000; fill-opacity:1.0; 
stroke:#000000; stroke-width:39.3701; stroke-opacity:1; 
stroke-linecap:round; stroke-linejoin:round;">
</g>
<g style="fill:#000000; fill-opacity:1.0; 
stroke:#000000; stroke-width:0; stroke-opacity:1; 
stroke-linecap:round; stroke-linejoin:round;">
<circle cx="58668" cy="36233" r="472.441" /> 
</g>
<g style="fill:#000000; fill-opacity:1.0; 
stroke:#000000; stroke-width:39.3701; stroke-opacity:1; 
stroke-linecap:round; stroke-linejoin:round;">
</g>
<g style="fill:#000000; fill-opacity:1.0; 
stroke:#000000; stroke-width:0; stroke-opacity:1; 
stroke-linecap:round; stroke-linejoin:round;">
<circle cx="58668" cy="37233" r="472.441" /> 
</g>
<g style="fill:#000000; fill-opacity:1.0; 
stroke:#000000; stroke-width:39.3701; stroke-opacity:1; 
stroke-linecap:round; stroke-linejoin:round;">
</g>
<g style="fill:#000000; fill-opacity:1.0; 
stroke:#000000; stroke-width:0; stroke-opacity:1; 
stroke-linecap:round; stroke-linejoin:round;">
<circle cx="65256" cy="36233" r="472.441" /> 
</g>
<g style="fill:#000000; fill-opacity:1.0; 
stroke:#000000; stroke-width:39.3701; stroke-opacity:1; 
stroke-linecap:round; stroke-linejoin:round;">
</g>
<g style="fill:#000000; fill-opacity:1.0; 
stroke:#000000; stroke-width:0; stroke-opacity:1; 
stroke-linecap:round; stroke-linejoin:round;">
<circle cx="65256" cy="37233" r="472.441" /> 
</g>
<g style="fill:#000000; fill-opacity:1.0; 
stroke:#000000; stroke-width:39.3701; stroke-opacity:1; 
stroke-linecap:round; stroke-linejoin:round;">
</g>
<g style="fill:#000000; fill-opacity:1.0; 
stroke:#000000; stroke-width:0; stroke-opacity:1; 
stroke-linecap:round; stroke-linejoin:round;">
<circle cx="49798" cy="36232" r="472.441" /> 
</g>
<g style="fill:#000000; fill-opacity:1.0; 
stroke:#000000; stroke-width:39.3701; stroke-opacity:1; 
stroke-linecap:round; stroke-linejoin:round;">
</g>
<g style="fill:#000000; fill-opacity:1.0; 
stroke:#000000; stroke-width:0; stroke-opacity:1; 
stroke-linecap:round; stroke-linejoin:round;">
<circle cx="49798" cy="37232" r="472.441" /> 
</g>
<g style="fill:#000000; fill-opacity:1.0; 
stroke:#000000; stroke-width:39.3701; stroke-opacity:1; 
stroke-linecap:round; stroke-linejoin:round;">
</g>
<g style="fill:#000000; fill-opacity:1.0; 
stroke:#000000; stroke-width:0; stroke-opacity:1; 
stroke-linecap:round; stroke-linejoin:round;">
<circle cx="43215" cy="36225" r="472.441" /> 
</g>
<g style="fill:#000000; fill-opacity:1.0; 
stroke:#000000; stroke-width:39.3701; stroke-opacity:1; 
stroke-linecap:round; stroke-linejoin:round;">
</g>
<g style="fill:#000000; fill-opacity:1.0; 
stroke:#000000; stroke-width:0; stroke-opacity:1; 
stroke-linecap:round; stroke-linejoin:round;">
<circle cx="43215" cy="37225" r="472.441" /> 
</g>
<g style="fill:#000000; fill-opacity:1.0; 
stroke:#000000; stroke-width:39.3701; stroke-opacity:1; 
stroke-linecap:round; stroke-linejoin:round;">
</g>
<g style="fill:#000000; fill-opacity:1.0; 
stroke:#000000; stroke-width:275.591; stroke-opacity:1; 
stroke-linecap:round; stroke-linejoin:round;">
</g>
<g style="fill:#000000; fill-opacity:0.0; 
stroke:#000000; stroke-width:275.591; stroke-opacity:1; 
stroke-linecap:round; stroke-linejoin:round;">
<path d="M65912 35596
L65857 35596
" />
<path d="M65912 37763
L65912 35596
" />
<path d="M65846 37763
L65912 37763
" />
<path d="M42658 37763
L65846 37763
" />
<path d="M42658 35598
L42658 37763
" />
<path d="M65894 35598
L42658 35598
" />
<path d="M76666 14008
L76450 14008
" />
<path d="M78202 15544
L76666 14008
" />
<path d="M78210 57830
L78210 15598
" />
<path d="M77690 58350
L78210 57830
" />
<path d="M75880 60160
L77690 58350
" />
<path d="M33490 60160
L75880 60160
" />
<path d="M31410 58080
L33490 60160
" />
<path d="M31410 15832
L31410 58080
" />
<path d="M33250 13992
L31410 15832
" />
<path d="M76626 13992
L33250 13992
" />
</g>
<g style="fill:#000000; fill-opacity:0.0; 
stroke:#000000; stroke-width:196.85; stroke-opacity:1; 
stroke-linecap:round; stroke-linejoin:round;">
<path d="M69363 56051
L69363 55263
L69101 55826
L68838 55263
L68838 56051
" />
<path d="M68463 56051
L68463 55263
" />
<path d="M67638 55976
L67676 56013
L67788 56051
L67863 56051
L67976 56013
L68051 55938
L68088 55863
L68126 55713
L68126 55601
L68088 55451
L68051 55376
L67976 55301
L67863 55263
L67788 55263
L67676 55301
L67638 55338
" />
<path d="M66363 55526
L66363 56051
" />
<path d="M66551 55226
L66738 55788
L66251 55788
" />
<path d="M43648 56356
L43648 55568
L43386 56131
L43123 55568
L43123 56356
" />
<path d="M42748 56356
L42748 55568
" />
<path d="M41923 56281
L41961 56318
L42073 56356
L42148 56356
L42261 56318
L42336 56243
L42373 56168
L42411 56018
L42411 55906
L42373 55756
L42336 55681
L42261 55606
L42148 55568
L42073 55568
L41961 55606
L41923 55643
" />
<path d="M41061 55568
L40573 55568
L40836 55868
L40723 55868
L40648 55906
L40611 55943
L40573 56018
L40573 56206
L40611 56281
L40648 56318
L40723 56356
L40948 56356
L41023 56318
L41061 56281
" />
<path d="M44408 17896
L44408 17108
L44146 17671
L43883 17108
L43883 17896
" />
<path d="M43508 17896
L43508 17108
" />
<path d="M42683 17821
L42721 17858
L42833 17896
L42908 17896
L43021 17858
L43096 17783
L43133 17708
L43171 17558
L43171 17446
L43133 17296
L43096 17221
L43021 17146
L42908 17108
L42833 17108
L42721 17146
L42683 17183
" />
<path d="M41783 17183
L41746 17146
L41671 17108
L41483 17108
L41408 17146
L41371 17183
L41333 17258
L41333 17333
L41371 17446
L41821 17896
L41333 17896
" />
<path d="M67648 18196
L67648 17408
L67386 17971
L67123 17408
L67123 18196
" />
<path d="M66748 18196
L66748 17408
" />
<path d="M65923 18121
L65961 18158
L66073 18196
L66148 18196
L66261 18158
L66336 18083
L66373 18008
L66411 17858
L66411 17746
L66373 17596
L66336 17521
L66261 17446
L66148 17408
L66073 17408
L65961 17446
L65923 17483
" />
<path d="M64573 18196
L65023 18196
" />
<path d="M64798 18196
L64798 17408
L64873 17521
L64948 17596
L65023 17633
" />
</g>
<g style="fill:#000000; fill-opacity:0.0; 
stroke:#000000; stroke-width:118.11; stroke-opacity:1; 
stroke-linecap:round; stroke-linejoin:round;">
<path d="M37394 56020
L36945 56020
" />
<path d="M37170 56245
L37170 55795
" />
<path d="M37394 57024
L36945 57024
" />
<path d="M72914 56100
L72465 56100
" />
<path d="M72914 57104
L72465 57104
" />
<path d="M72690 57329
L72690 56879
" />
<path d="M37634 18100
L37185 18100
" />
<path d="M37410 18325
L37410 17875
" />
<path d="M37634 19104
L37185 19104
" />
<path d="M72274 16980
L71825 16980
" />
<path d="M72274 17984
L71825 17984
" />
<path d="M72050 18209
L72050 17759
" />
<path d="M43442 39204
L42993 39204
" />
<path d="M43218 39429
L43218 38979
" />
<path d="M43442 40208
L42993 40208
" />
<path d="M50142 39030
L49693 39030
" />
<path d="M50142 40034
L49693 40034
" />
<path d="M49918 40259
L49918 39809
" />
<path d="M58849 39140
L58400 39140
" />
<path d="M58625 39365
L58625 38915
" />
<path d="M58849 40144
L58400 40144
" />
<path d="M65604 39040
L65155 39040
" />
<path d="M65604 40044
L65155 40044
" />
<path d="M65380 40269
L65380 39819
" />
</g>
<g style="fill:#000000; fill-opacity:0.0; 
stroke:#000000; stroke-width:78.7402; stroke-opacity:1; 
stroke-linecap:round; stroke-linejoin:round;">
<path d="M32868 30758
L32868 30767
" />
<path d="M32860 30750
L32868 30758
" />
<path d="M75165 57936
L34232 57936
" />
<path d="M75170 57932
L75160 57932
" />
<path d="M75170 16038
L75170 57932
" />
<path d="M34218 57731
L34218 57939
" />
<path d="M34218 16024
L34218 57720
" />
<path d="M34210 16024
L34210 16027
" />
<path d="M75154 16024
L34210 16024
" />
<path d="M34218 48843
L34215 48843
" />
<path d="M34221 48840
L34218 48843
" />
</g>
<g style="fill:#000000; fill-opacity:0.0; 
stroke:#000000; stroke-width:47.2441; stroke-opacity:1; 
stroke-linecap:round; stroke-linejoin:round;">
<path d="M35409 17168
L35409 18215
" />
<path d="M35409 18215
L34314 18215
" />
<path d="M34314 18215
L34314 17168
" />
<path d="M34314 17168
L35409 17168
" />
<path d="M35409 16668
L35409 16120
" />
<path d="M35409 16120
L34862 16120
" />
<path d="M75067 17165
L75067 18212
" />
<path d="M75067 18212
L73972 18212
" />
<path d="M73972 18212
L73972 17165
" />
<path d="M73972 17165
L75067 17165
" />
<path d="M75067 16665
L75067 16117
" />
<path d="M75067 16117
L74520 16117
" />
<path d="M75077 56820
L75077 57867
" />
<path d="M75077 57867
L73982 57867
" />
<path d="M73982 57867
L73982 56820
" />
<path d="M73982 56820
L75077 56820
" />
<path d="M75077 56320
L75077 55772
" />
<path d="M75077 55772
L74530 55772
" />
<path d="M35415 56822
L35415 57869
" />
<path d="M35415 57869
L34320 57869
" />
<path d="M34320 57869
L34320 56822
" />
<path d="M34320 56822
L35415 56822
" />
<path d="M35415 56322
L35415 55774
" />
<path d="M35415 55774
L34868 55774
" />
<path d="M59215 36733
L59215 37780
" />
<path d="M59215 37780
L58120 37780
" />
<path d="M58120 37780
L58120 36733
" />
<path d="M58120 36733
L59215 36733
" />
<path d="M59215 36233
L59215 35685
" />
<path d="M59215 35685
L58668 35685
" />
<path d="M65803 36733
L65803 37780
" />
<path d="M65803 37780
L64708 37780
" />
<path d="M64708 37780
L64708 36733
" />
<path d="M64708 36733
L65803 36733
" />
<path d="M65803 36233
L65803 35685
" />
<path d="M65803 35685
L65256 35685
" />
<path d="M50345 36732
L50345 37779
" />
<path d="M50345 37779
L49250 37779
" />
<path d="M49250 37779
L49250 36732
" />
<path d="M49250 36732
L50345 36732
" />
<path d="M50345 36232
L50345 35684
" />
<path d="M50345 35684
L49798 35684
" />
<path d="M43762 36725
L43762 37772
" />
<path d="M43762 37772
L42667 37772
" />
<path d="M42667 37772
L42667 36725
" />
<path d="M42667 36725
L43762 36725
" />
<path d="M43762 36225
L43762 35677
" />
<path d="M43762 35677
L43215 35677
" />
</g>
<g style="fill:#000000; fill-opacity:0.0; 
stroke:#000000; stroke-width:59.0551; stroke-opacity:1; 
stroke-linecap:round; stroke-linejoin:round;">
<path d="M34993 15511
L34993 15792
L35011 15848
L35049 15886
L35105 15905
L35143 15905
" />
<path d="M34599 15905
L34824 15905
" />
<path d="M34712 15905
L34712 15511
L34749 15567
L34787 15605
L34824 15623
" />
<path d="M74651 15508
L74651 15789
L74669 15845
L74707 15883
L74763 15902
L74801 15902
" />
<path d="M74482 15545
L74463 15527
L74426 15508
L74332 15508
L74295 15527
L74276 15545
L74257 15583
L74257 15620
L74276 15677
L74501 15902
L74257 15902
" />
<path d="M74661 55163
L74661 55444
L74679 55500
L74717 55538
L74773 55557
L74811 55557
" />
<path d="M74286 55163
L74473 55163
L74492 55350
L74473 55332
L74436 55313
L74342 55313
L74305 55332
L74286 55350
L74267 55388
L74267 55482
L74286 55519
L74305 55538
L74342 55557
L74436 55557
L74473 55538
L74492 55519
" />
<path d="M34999 55165
L34999 55446
L35017 55502
L35055 55540
L35111 55559
L35149 55559
" />
<path d="M34643 55165
L34718 55165
L34755 55184
L34774 55202
L34811 55259
L34830 55334
L34830 55484
L34811 55521
L34793 55540
L34755 55559
L34680 55559
L34643 55540
L34624 55521
L34605 55484
L34605 55390
L34624 55352
L34643 55334
L34680 55315
L34755 55315
L34793 55334
L34811 55352
L34830 55390
" />
<path d="M58799 35076
L58799 35357
L58817 35413
L58855 35451
L58911 35470
L58949 35470
" />
<path d="M58649 35076
L58405 35076
L58536 35226
L58480 35226
L58443 35245
L58424 35263
L58405 35301
L58405 35395
L58424 35432
L58443 35451
L58480 35470
L58593 35470
L58630 35451
L58649 35432
" />
<path d="M65387 35076
L65387 35357
L65405 35413
L65443 35451
L65499 35470
L65537 35470
" />
<path d="M65031 35207
L65031 35470
" />
<path d="M65124 35057
L65218 35338
L64974 35338
" />
<path d="M49929 35075
L49929 35356
L49947 35412
L49985 35450
L50041 35469
L50079 35469
" />
<path d="M49779 35075
L49516 35075
L49685 35469
" />
<path d="M43346 35068
L43346 35349
L43364 35405
L43402 35443
L43458 35462
L43496 35462
" />
<path d="M43102 35237
L43140 35218
L43158 35199
L43177 35162
L43177 35143
L43158 35105
L43140 35087
L43102 35068
L43027 35068
L42990 35087
L42971 35105
L42952 35143
L42952 35162
L42971 35199
L42990 35218
L43027 35237
L43102 35237
L43140 35255
L43158 35274
L43177 35312
L43177 35387
L43158 35424
L43140 35443
L43102 35462
L43027 35462
L42990 35443
L42971 35424
L42952 35387
L42952 35312
L42971 35274
L42990 35255
L43027 35237
" />
</g>
<g style="fill:#000000; fill-opacity:0.0; 
stroke:#000000; stroke-width:19.685; stroke-opacity:1; 
stroke-linecap:round; stroke-linejoin:round;">
<path d="M35491 16038
L35491 18282
" />
<path d="M35491 18282
L34232 18282
" />
<path d="M34232 18282
L34232 16038
" />
<path d="M34232 16038
L35491 16038
" />
<path d="M75149 16035
L75149 18279
" />
<path d="M75149 18279
L73890 18279
" />
<path d="M73890 18279
L73890 16035
" />
<path d="M73890 16035
L75149 16035
" />
<path d="M75159 55690
L75159 57934
" />
<path d="M75159 57934
L73900 57934
" />
<path d="M73900 57934
L73900 55690
" />
<path d="M73900 55690
L75159 55690
" />
<path d="M35497 55692
L35497 57936
" />
<path d="M35497 57936
L34238 57936
" />
<path d="M34238 57936
L34238 55692
" />
<path d="M34238 55692
L35497 55692
" />
<path d="M59297 35603
L59297 37847
" />
<path d="M59297 37847
L58038 37847
" />
<path d="M58038 37847
L58038 35603
" />
<path d="M58038 35603
L59297 35603
" />
<path d="M65885 35603
L65885 37847
" />
<path d="M65885 37847
L64626 37847
" />
<path d="M64626 37847
L64626 35603
" />
<path d="M64626 35603
L65885 35603
" />
<path d="M50427 35602
L50427 37846
" />
<path d="M50427 37846
L49168 37846
" />
<path d="M49168 37846
L49168 35602
" />
<path d="M49168 35602
L50427 35602
" />
<path d="M43844 35595
L43844 37839
" />
<path d="M43844 37839
L42585 37839
" />
<path d="M42585 37839
L42585 35595
" />
<path d="M42585 35595
L43844 35595
" />
</g>
<g style="fill:#000000; fill-opacity:0.0; 
stroke:#000000; stroke-width:39.3701; stroke-opacity:1; 
stroke-linecap:round; stroke-linejoin:round;">
<path d="M35362 16168
L35362 18168
" />
<path d="M35362 18168
L34362 18168
" />
<path d="M34362 18168
L34362 16168
" />
<path d="M34362 16168
L35362 16168
" />
<path d="M75020 16165
L75020 18165
" />
<path d="M75020 18165
L74020 18165
" />
<path d="M74020 18165
L74020 16165
" />
<path d="M74020 16165
L75020 16165
" />
<path d="M75030 55820
L75030 57820
" />
<path d="M75030 57820
L74030 57820
" />
<path d="M74030 57820
L74030 55820
" />
<path d="M74030 55820
L75030 55820
" />
<path d="M35368 55822
L35368 57822
" />
<path d="M35368 57822
L34368 57822
" />
<path d="M34368 57822
L34368 55822
" />
<path d="M34368 55822
L35368 55822
" />
<path d="M59168 35733
L59168 37733
" />
<path d="M59168 37733
L58168 37733
" />
<path d="M58168 37733
L58168 35733
" />
<path d="M58168 35733
L59168 35733
" />
<path d="M65756 35733
L65756 37733
" />
<path d="M65756 37733
L64756 37733
" />
<path d="M64756 37733
L64756 35733
" />
<path d="M64756 35733
L65756 35733
" />
<path d="M50298 35732
L50298 37732
" />
<path d="M50298 37732
L49298 37732
" />
<path d="M49298 37732
L49298 35732
" />
<path d="M49298 35732
L50298 35732
" />
<path d="M43715 35725
L43715 37725
" />
<path d="M43715 37725
L42715 37725
" />
<path d="M42715 37725
L42715 35725
" />
<path d="M42715 35725
L43715 35725
" />
</g>
<g style="fill:#000000; fill-opacity:0.0; 
stroke:#000000; stroke-width:59.0551; stroke-opacity:1; 
stroke-linecap:round; stroke-linejoin:round;">
<path d="M35443 18787
L35443 18393
L35311 18674
L35180 18393
L35180 18787
" />
<path d="M34993 18787
L34993 18524
" />
<path d="M34993 18393
L35011 18412
L34993 18430
L34974 18412
L34993 18393
L34993 18430
" />
<path d="M34637 18768
L34674 18787
L34749 18787
L34787 18768
L34805 18749
L34824 18712
L34824 18599
L34805 18562
L34787 18543
L34749 18524
L34674 18524
L34637 18543
" />
<path d="M34487 18430
L34468 18412
L34430 18393
L34337 18393
L34299 18412
L34280 18430
L34262 18468
L34262 18505
L34280 18562
L34505 18787
L34262 18787
" />
<path d="M75101 18784
L75101 18390
L74969 18671
L74838 18390
L74838 18784
" />
<path d="M74651 18784
L74651 18521
" />
<path d="M74651 18390
L74669 18409
L74651 18427
L74632 18409
L74651 18390
L74651 18427
" />
<path d="M74295 18765
L74332 18784
L74407 18784
L74445 18765
L74463 18746
L74482 18709
L74482 18596
L74463 18559
L74445 18540
L74407 18521
L74332 18521
L74295 18540
" />
<path d="M73920 18784
L74145 18784
" />
<path d="M74032 18784
L74032 18390
L74070 18446
L74107 18484
L74145 18502
" />
<path d="M75111 58439
L75111 58045
L74979 58326
L74848 58045
L74848 58439
" />
<path d="M74661 58439
L74661 58176
" />
<path d="M74661 58045
L74679 58064
L74661 58082
L74642 58064
L74661 58045
L74661 58082
" />
<path d="M74305 58420
L74342 58439
L74417 58439
L74455 58420
L74473 58401
L74492 58364
L74492 58251
L74473 58214
L74455 58195
L74417 58176
L74342 58176
L74305 58195
" />
<path d="M73967 58176
L73967 58439
" />
<path d="M74061 58026
L74155 58307
L73911 58307
" />
<path d="M35449 58441
L35449 58047
L35317 58328
L35186 58047
L35186 58441
" />
<path d="M34999 58441
L34999 58178
" />
<path d="M34999 58047
L35017 58066
L34999 58084
L34980 58066
L34999 58047
L34999 58084
" />
<path d="M34643 58422
L34680 58441
L34755 58441
L34793 58422
L34811 58403
L34830 58366
L34830 58253
L34811 58216
L34793 58197
L34755 58178
L34680 58178
L34643 58197
" />
<path d="M34511 58047
L34268 58047
L34399 58197
L34343 58197
L34305 58216
L34286 58234
L34268 58272
L34268 58366
L34286 58403
L34305 58422
L34343 58441
L34455 58441
L34493 58422
L34511 58403
" />
<path d="M60017 38352
L60017 37958
L59886 38239
L59755 37958
L59755 38352
" />
<path d="M59567 38352
L59567 38089
" />
<path d="M59567 37958
L59586 37977
L59567 37995
L59549 37977
L59567 37958
L59567 37995
" />
<path d="M59211 38333
L59249 38352
L59324 38352
L59361 38333
L59380 38314
L59399 38277
L59399 38164
L59380 38127
L59361 38108
L59324 38089
L59249 38089
L59211 38108
" />
<path d="M59061 37995
L59042 37977
L59005 37958
L58911 37958
L58874 37977
L58855 37995
L58836 38033
L58836 38070
L58855 38127
L59080 38352
L58836 38352
" />
<path d="M58761 38389
L58461 38389
" />
<path d="M58199 38333
L58236 38352
L58311 38352
L58349 38333
L58368 38314
L58386 38277
L58386 38164
L58368 38127
L58349 38108
L58311 38089
L58236 38089
L58199 38108
" />
<path d="M58030 38352
L58030 37958
" />
<path d="M57861 38352
L57861 38145
L57880 38108
L57918 38089
L57974 38089
L58011 38108
L58030 38127
" />
<path d="M57674 38352
L57674 38089
" />
<path d="M57674 37958
L57693 37977
L57674 37995
L57655 37977
L57674 37958
L57674 37995
" />
<path d="M57486 38089
L57486 38483
" />
<path d="M57486 38108
L57449 38089
L57374 38089
L57336 38108
L57318 38127
L57299 38164
L57299 38277
L57318 38314
L57336 38333
L57374 38352
L57449 38352
L57486 38333
" />
<path d="M66605 38352
L66605 37958
L66474 38239
L66343 37958
L66343 38352
" />
<path d="M66155 38352
L66155 38089
" />
<path d="M66155 37958
L66174 37977
L66155 37995
L66137 37977
L66155 37958
L66155 37995
" />
<path d="M65799 38333
L65837 38352
L65912 38352
L65949 38333
L65968 38314
L65987 38277
L65987 38164
L65968 38127
L65949 38108
L65912 38089
L65837 38089
L65799 38108
" />
<path d="M65424 38352
L65649 38352
" />
<path d="M65537 38352
L65537 37958
L65574 38014
L65612 38052
L65649 38070
" />
<path d="M65349 38389
L65049 38389
" />
<path d="M64787 38333
L64824 38352
L64899 38352
L64937 38333
L64956 38314
L64974 38277
L64974 38164
L64956 38127
L64937 38108
L64899 38089
L64824 38089
L64787 38108
" />
<path d="M64618 38352
L64618 37958
" />
<path d="M64449 38352
L64449 38145
L64468 38108
L64506 38089
L64562 38089
L64599 38108
L64618 38127
" />
<path d="M64262 38352
L64262 38089
" />
<path d="M64262 37958
L64281 37977
L64262 37995
L64243 37977
L64262 37958
L64262 37995
" />
<path d="M64074 38089
L64074 38483
" />
<path d="M64074 38108
L64037 38089
L63962 38089
L63924 38108
L63906 38127
L63887 38164
L63887 38277
L63906 38314
L63924 38333
L63962 38352
L64037 38352
L64074 38333
" />
<path d="M51147 38351
L51147 37957
L51016 38238
L50885 37957
L50885 38351
" />
<path d="M50697 38351
L50697 38088
" />
<path d="M50697 37957
L50716 37976
L50697 37994
L50679 37976
L50697 37957
L50697 37994
" />
<path d="M50341 38332
L50379 38351
L50454 38351
L50491 38332
L50510 38313
L50529 38276
L50529 38163
L50510 38126
L50491 38107
L50454 38088
L50379 38088
L50341 38107
" />
<path d="M50004 38088
L50004 38351
" />
<path d="M50097 37938
L50191 38219
L49947 38219
" />
<path d="M49891 38388
L49591 38388
" />
<path d="M49329 38332
L49366 38351
L49441 38351
L49479 38332
L49498 38313
L49516 38276
L49516 38163
L49498 38126
L49479 38107
L49441 38088
L49366 38088
L49329 38107
" />
<path d="M49160 38351
L49160 37957
" />
<path d="M48991 38351
L48991 38144
L49010 38107
L49048 38088
L49104 38088
L49141 38107
L49160 38126
" />
<path d="M48804 38351
L48804 38088
" />
<path d="M48804 37957
L48823 37976
L48804 37994
L48785 37976
L48804 37957
L48804 37994
" />
<path d="M48616 38088
L48616 38482
" />
<path d="M48616 38107
L48579 38088
L48504 38088
L48466 38107
L48448 38126
L48429 38163
L48429 38276
L48448 38313
L48466 38332
L48504 38351
L48579 38351
L48616 38332
" />
<path d="M44564 38344
L44564 37950
L44433 38231
L44302 37950
L44302 38344
" />
<path d="M44114 38344
L44114 38081
" />
<path d="M44114 37950
L44133 37969
L44114 37987
L44096 37969
L44114 37950
L44114 37987
" />
<path d="M43758 38325
L43796 38344
L43871 38344
L43908 38325
L43927 38306
L43946 38269
L43946 38156
L43927 38119
L43908 38100
L43871 38081
L43796 38081
L43758 38100
" />
<path d="M43627 37950
L43383 37950
L43514 38100
L43458 38100
L43421 38119
L43402 38137
L43383 38175
L43383 38269
L43402 38306
L43421 38325
L43458 38344
L43571 38344
L43608 38325
L43627 38306
" />
<path d="M43308 38381
L43008 38381
" />
<path d="M42746 38325
L42783 38344
L42858 38344
L42896 38325
L42915 38306
L42933 38269
L42933 38156
L42915 38119
L42896 38100
L42858 38081
L42783 38081
L42746 38100
" />
<path d="M42577 38344
L42577 37950
" />
<path d="M42408 38344
L42408 38137
L42427 38100
L42465 38081
L42521 38081
L42558 38100
L42577 38119
" />
<path d="M42221 38344
L42221 38081
" />
<path d="M42221 37950
L42240 37969
L42221 37987
L42202 37969
L42221 37950
L42221 37987
" />
<path d="M42033 38081
L42033 38475
" />
<path d="M42033 38100
L41996 38081
L41921 38081
L41883 38100
L41865 38119
L41846 38156
L41846 38269
L41865 38306
L41883 38325
L41921 38344
L41996 38344
L42033 38325
" />
</g> 
</svg>
